<svg width="321" height="321" viewBox="0 0 321 321" fill="none" xmlns="http://www.w3.org/2000/svg">
<path d="M260.569 78.1699C276.298 109.512 271.322 149.079 251.658 178.123C231.993 207.167 199.29 225.984 164.891 232.808C140.341 237.7 113.923 236.705 91.4914 225.592C69.0599 214.479 51.4177 192.131 50.076 167.132C49.5624 157.688 51.5654 147.66 57.8634 140.598C67.9236 129.344 85.1035 128.946 100.197 129.408C115.29 129.87 132.451 129.523 142.569 118.308C150.337 109.692 151.48 97.1923 155.576 86.3361C162.535 67.8786 179.33 53.4657 198.628 49.389C201.297 48.832 204.003 48.4673 206.724 48.2976C227.948 46.9751 248.082 57.9276 259.22 76.0192L260.569 78.1699Z" fill="#EBEBEB"/>
<path d="M307.158 275.014C307.158 275.103 242.098 275.181 161.861 275.181C81.6238 275.181 16.5443 275.103 16.5443 275.014C16.5443 274.924 81.5917 274.847 161.861 274.847C242.13 274.847 307.158 274.917 307.158 275.014Z" fill="#263238"/>
<path d="M213.317 88.8657H107.683C103.587 88.8657 100.268 92.1856 100.268 96.2808V267.387C100.268 271.482 103.587 274.802 107.683 274.802H213.317C217.413 274.802 220.732 271.482 220.732 267.387V96.2808C220.732 92.1856 217.413 88.8657 213.317 88.8657Z" fill="#455A64"/>
<path d="M164.192 266.154C164.127 267.054 163.8 267.916 163.252 268.633C162.705 269.351 161.959 269.892 161.108 270.192C160.257 270.492 159.336 270.537 158.46 270.321C157.584 270.105 156.789 269.638 156.174 268.977C155.56 268.316 155.151 267.49 154.999 266.601C154.847 265.711 154.958 264.796 155.319 263.969C155.679 263.141 156.274 262.437 157.029 261.943C157.784 261.448 158.667 261.185 159.569 261.185C160.84 261.233 162.04 261.783 162.907 262.715C163.773 263.646 164.235 264.883 164.192 266.154Z" fill="#263238"/>
<path d="M177.853 94.22H143.14C142.708 94.22 142.357 94.5706 142.357 95.0032V95.4911C142.357 95.9237 142.708 96.2744 143.14 96.2744H177.853C178.286 96.2744 178.636 95.9237 178.636 95.4911V95.0032C178.636 94.5706 178.286 94.22 177.853 94.22Z" fill="#263238"/>
<path d="M217.24 99.5356H104.376V256.408H217.24V99.5356Z" fill="#263238"/>
<path d="M187.939 240.217L188.356 240.179C188.762 240.154 189.165 240.1 189.563 240.018C190.208 239.881 190.833 239.665 191.425 239.376C192.238 238.993 192.979 238.471 193.614 237.835C194.418 237.043 195.044 236.089 195.451 235.036C195.925 233.784 196.103 232.44 195.971 231.107C195.827 229.476 195.19 227.928 194.144 226.668C193.098 225.409 191.692 224.498 190.116 224.058C189.677 223.939 189.231 223.853 188.78 223.801C188.318 223.801 187.856 223.75 187.374 223.756H184.447H178.239H164.532H133.132C131.771 223.766 130.434 224.115 129.241 224.771C128.073 225.432 127.09 226.377 126.382 227.518C125.674 228.659 125.264 229.959 125.19 231.3C125.086 232.612 125.286 233.93 125.774 235.152C126.273 236.331 127.041 237.377 128.015 238.208C128.978 239.014 130.117 239.583 131.34 239.871C132.558 240.09 133.797 240.166 135.032 240.095H138.672L164.32 240.134L181.609 240.185L186.308 240.217H181.609L164.32 240.269L138.672 240.307H133.144C132.83 240.307 132.502 240.307 132.188 240.249C131.871 240.21 131.556 240.154 131.244 240.082C129.971 239.786 128.786 239.194 127.784 238.355C126.769 237.492 125.969 236.404 125.447 235.178C124.943 233.919 124.735 232.562 124.837 231.21C124.921 229.841 125.352 228.515 126.089 227.358C126.829 226.17 127.858 225.189 129.081 224.508C130.323 223.821 131.718 223.457 133.138 223.448H164.538H178.245H187.381C187.856 223.448 188.337 223.448 188.812 223.493C189.276 223.552 189.735 223.644 190.186 223.769C191.815 224.234 193.262 225.189 194.33 226.504C195.398 227.819 196.036 229.43 196.157 231.12C196.284 232.479 196.092 233.848 195.598 235.12C195.177 236.187 194.533 237.152 193.711 237.951C193.059 238.591 192.301 239.112 191.47 239.492C190.867 239.782 190.231 239.998 189.576 240.134C189.174 240.207 188.766 240.248 188.356 240.256C188.106 240.224 187.939 240.217 187.939 240.217Z" fill="white"/>
<path d="M146.331 230.851L145.933 231.351C145.791 231.194 145.617 231.067 145.424 230.979C145.231 230.89 145.022 230.842 144.81 230.838C144.615 230.825 144.419 230.852 144.235 230.917C144.052 230.983 143.883 231.085 143.74 231.219C143.598 231.352 143.484 231.513 143.406 231.692C143.329 231.871 143.289 232.065 143.289 232.26C143.289 232.455 143.329 232.648 143.406 232.827C143.484 233.006 143.598 233.167 143.74 233.301C143.883 233.434 144.052 233.537 144.235 233.602C144.419 233.668 144.615 233.695 144.81 233.682C145.231 233.673 145.633 233.503 145.933 233.207L146.337 233.656C145.916 234.062 145.356 234.291 144.771 234.298C144.493 234.314 144.214 234.272 143.953 234.177C143.691 234.081 143.452 233.933 143.249 233.741C143.047 233.55 142.886 233.319 142.775 233.063C142.665 232.808 142.608 232.532 142.608 232.253C142.608 231.975 142.665 231.699 142.775 231.443C142.886 231.187 143.047 230.957 143.249 230.765C143.452 230.574 143.691 230.426 143.953 230.33C144.214 230.234 144.493 230.193 144.771 230.209C145.355 230.21 145.915 230.441 146.331 230.851Z" fill="white"/>
<path d="M150.87 232.269C150.891 232.697 150.783 233.121 150.56 233.487C150.337 233.853 150.01 234.144 149.62 234.322C149.231 234.5 148.797 234.558 148.374 234.487C147.952 234.416 147.56 234.22 147.25 233.925C146.939 233.63 146.725 233.248 146.633 232.83C146.542 232.411 146.578 231.975 146.737 231.577C146.896 231.179 147.17 230.838 147.525 230.598C147.879 230.357 148.297 230.228 148.726 230.228C149.002 230.217 149.277 230.262 149.535 230.36C149.793 230.458 150.029 230.606 150.228 230.796C150.428 230.987 150.588 231.215 150.698 231.468C150.808 231.721 150.867 231.993 150.87 232.269ZM147.275 232.269C147.278 232.653 147.434 233.02 147.707 233.289C147.98 233.559 148.349 233.709 148.732 233.707C149.016 233.704 149.292 233.616 149.526 233.456C149.76 233.295 149.941 233.07 150.047 232.806C150.153 232.543 150.179 232.255 150.121 231.977C150.063 231.699 149.925 231.445 149.723 231.246C149.521 231.047 149.265 230.912 148.987 230.858C148.708 230.804 148.42 230.833 148.158 230.943C147.897 231.052 147.673 231.236 147.516 231.472C147.359 231.708 147.275 231.986 147.275 232.269Z" fill="white"/>
<path d="M154.465 234.292L152.308 231.39V234.292H151.628V230.247H152.27L154.44 233.155V230.247H155.082V234.292H154.465Z" fill="white"/>
<path d="M156.886 230.857V232.025H158.722V232.635H156.886V234.292H156.199V230.247H158.921V230.857H156.886Z" fill="white"/>
<path d="M159.524 234.292V230.247H160.205V234.292H159.524Z" fill="white"/>
<path d="M163.068 233.046H161.925V234.266H161.27V230.221H162.907C163.941 230.221 164.538 230.722 164.538 231.601C164.555 231.877 164.484 232.15 164.333 232.382C164.183 232.613 163.962 232.789 163.704 232.885L164.609 234.24H163.832L163.068 233.046ZM162.882 232.443C163.524 232.443 163.864 232.173 163.864 231.627C163.864 231.081 163.511 230.838 162.882 230.838H161.925V232.443H162.882Z" fill="white"/>
<path d="M169.09 234.292V231.268L167.806 233.836H167.357L166.073 231.268V234.292H165.431V230.247H166.278L167.613 232.931L168.942 230.247H169.751V234.292H169.09Z" fill="white"/>
<path d="M171.472 230.857V231.948H173.449V232.59H171.472V233.688H173.751V234.298H170.772V230.253H173.661V230.863L171.472 230.857Z" fill="white"/>
<path d="M176.242 230.247C176.778 230.247 177.293 230.46 177.672 230.839C178.051 231.219 178.264 231.733 178.264 232.269C178.264 232.806 178.051 233.32 177.672 233.699C177.293 234.079 176.778 234.292 176.242 234.292H174.598V230.247H176.242ZM175.266 233.688H176.255C176.44 233.693 176.624 233.659 176.795 233.59C176.967 233.521 177.122 233.417 177.252 233.285C177.382 233.153 177.484 232.996 177.551 232.824C177.618 232.651 177.649 232.467 177.641 232.282C177.647 232.095 177.614 231.909 177.545 231.735C177.476 231.56 177.372 231.402 177.24 231.269C177.108 231.137 176.95 231.032 176.776 230.962C176.602 230.893 176.416 230.859 176.229 230.863H175.266V233.688Z" fill="white"/>
<path d="M117.197 154.221L202.686 153.605L205.068 211.725L116.549 210.903L117.197 154.221Z" fill="#92E3A9"/>
<path d="M117.197 154.221L160.596 119.104L202.686 153.605" fill="#92E3A9"/>
<g opacity="0.3">
<path d="M117.197 154.221L160.596 119.104L202.686 153.605" fill="black"/>
</g>
<path d="M116.549 210.903C116.44 210.807 123.283 203.334 131.835 194.211C140.386 185.089 147.397 177.783 147.506 177.885C147.615 177.988 140.771 185.455 132.22 194.577C123.668 203.7 116.658 211.006 116.549 210.903Z" fill="#263238"/>
<path d="M205.068 211.725C204.959 211.821 198.295 204.503 190.186 195.373C182.078 186.244 175.587 178.765 175.696 178.681C175.805 178.598 182.469 185.904 190.578 195.033C198.686 204.162 205.177 211.629 205.068 211.725Z" fill="#263238"/>
<g opacity="0.5">
<path d="M202.686 153.605L159.755 187.9L117.197 154.221" fill="black"/>
</g>
<path d="M121.505 157.399L121.376 132.534L196.253 130.698L197.068 157.906L159.755 187.451L121.505 157.399Z" fill="#EBEBEB"/>
<path d="M160.802 178.514C158.175 178.521 155.577 177.972 153.177 176.903C150.778 175.835 148.631 174.27 146.88 172.313C145.128 170.355 143.81 168.05 143.013 165.547C142.216 163.044 141.957 160.401 142.254 157.791C142.81 152.882 145.293 148.395 149.158 145.317C153.022 142.239 157.95 140.822 162.859 141.378C167.768 141.934 172.255 144.417 175.333 148.281C178.411 152.145 179.828 157.074 179.272 161.983C178.76 166.525 176.594 170.721 173.188 173.769C169.782 176.818 165.373 178.507 160.802 178.514ZM160.75 141.92C157.283 141.924 153.89 142.931 150.982 144.819C148.073 146.707 145.773 149.396 144.358 152.562C142.943 155.728 142.474 159.236 143.008 162.662C143.541 166.089 145.054 169.288 147.365 171.873C149.675 174.459 152.684 176.322 156.029 177.236C159.374 178.151 162.912 178.078 166.217 177.027C169.522 175.976 172.452 173.992 174.654 171.314C176.857 168.635 178.237 165.377 178.63 161.932C178.898 159.584 178.701 157.207 178.049 154.936C177.398 152.665 176.305 150.544 174.834 148.696C173.362 146.847 171.54 145.307 169.473 144.163C167.406 143.02 165.133 142.294 162.786 142.03C162.11 141.942 161.431 141.893 160.75 141.882V141.92Z" fill="#92E3A9"/>
<path d="M148.103 162.471L151.217 158.657L158.497 163.915L170.329 149.971L173.898 153.111L158.677 170.65L148.103 162.471Z" fill="#92E3A9"/>
<path d="M241.347 187.682C241.379 187.796 241.436 187.902 241.515 187.99C241.594 188.078 241.693 188.147 241.802 188.191C241.912 188.235 242.031 188.253 242.149 188.244C242.267 188.235 242.382 188.199 242.483 188.138C242.68 187.994 242.832 187.796 242.921 187.569C243.009 187.342 243.031 187.094 242.984 186.854C242.882 186.38 242.688 185.931 242.413 185.532C242.6 185.636 242.809 185.697 243.024 185.709C243.238 185.721 243.453 185.684 243.651 185.6C243.849 185.517 244.025 185.389 244.166 185.227C244.307 185.065 244.41 184.874 244.466 184.666C244.522 184.459 244.529 184.241 244.489 184.03C244.448 183.819 244.359 183.621 244.23 183.449C244.101 183.277 243.934 183.137 243.743 183.04C243.551 182.943 243.34 182.89 243.125 182.886C243.736 182.797 244.314 182.557 244.807 182.187C245.048 181.993 245.222 181.73 245.307 181.434C245.392 181.137 245.384 180.822 245.282 180.53C245.219 180.394 245.125 180.275 245.007 180.183C244.889 180.09 244.751 180.027 244.603 179.998C244.456 179.97 244.304 179.976 244.16 180.017C244.016 180.058 243.884 180.133 243.774 180.235C244.106 180.05 244.397 179.799 244.628 179.497C244.741 179.344 244.806 179.161 244.814 178.971C244.822 178.781 244.773 178.593 244.673 178.431C244.522 178.272 244.324 178.165 244.108 178.126C243.892 178.087 243.669 178.117 243.472 178.213C243.08 178.402 242.7 178.616 242.336 178.855C241.873 179.1 241.355 179.219 240.832 179.2C240.309 179.18 239.8 179.024 239.357 178.746L236.962 180.723L241.347 187.682Z" fill="#263238"/>
<path d="M228.552 176.813C227.888 177.033 227.3 177.438 226.859 177.98C226.418 178.523 226.141 179.181 226.061 179.876C226.021 180.128 226.032 180.385 226.092 180.633C226.153 180.881 226.262 181.115 226.414 181.32C226.629 181.541 226.898 181.7 227.195 181.781C227.492 181.862 227.805 181.863 228.102 181.782C228.693 181.618 229.242 181.332 229.714 180.941C230.089 180.726 230.416 180.437 230.677 180.091C230.937 179.746 231.125 179.352 231.229 178.932C231.251 178.505 231.139 178.082 230.908 177.722C230.678 177.362 230.342 177.082 229.945 176.922C229.548 176.772 229.124 176.707 228.701 176.731C228.277 176.756 227.863 176.869 227.486 177.064" fill="#263238"/>
<path d="M230.626 188.671C230.416 189.523 230.057 190.332 229.566 191.059C229.32 191.422 229 191.729 228.627 191.96C228.254 192.191 227.837 192.341 227.403 192.401C226.968 192.449 226.529 192.354 226.153 192.129C225.777 191.904 225.486 191.562 225.323 191.156C225.251 191.405 225.114 191.631 224.927 191.812C224.74 191.992 224.509 192.12 224.257 192.183C224.002 192.238 223.737 192.21 223.499 192.104C223.261 191.997 223.064 191.818 222.934 191.592C222.819 191.36 222.793 191.094 222.862 190.844C222.93 190.594 223.089 190.378 223.307 190.238C222.793 190.526 222.151 190.822 221.644 190.52C221.426 190.383 221.266 190.17 221.195 189.923C220.931 189.114 221.432 188.267 221.991 187.625C222.549 186.983 223.204 186.341 223.339 185.519C223.378 184.837 223.275 184.155 223.037 183.516C222.828 182.785 222.797 182.014 222.947 181.269C223.024 180.895 223.178 180.54 223.399 180.229C223.62 179.917 223.904 179.655 224.231 179.458C224.559 179.266 224.936 179.175 225.315 179.197C225.695 179.219 226.059 179.352 226.363 179.58L226.472 180.672L230.645 188.671" fill="#263238"/>
<path d="M240.609 201.395C240.609 201.395 242.105 217.221 240.846 219.281C239.588 221.342 224.154 242.881 224.154 242.881H224.193C223.891 243.01 223.551 243.132 223.217 243.267C222.679 243.458 222.112 243.557 221.541 243.562C220.834 243.595 220.125 243.528 219.436 243.363C218.794 243.145 218.261 243.793 218.595 244.281C218.928 244.769 220.617 245.398 222.71 245.199C224.803 245 222.447 247.318 221.606 248.178C220.765 249.038 218.286 251.831 218.351 252.3C218.44 252.986 219.192 253.019 220.013 252.139C220.835 251.26 223.474 248.788 223.91 249.256C224.347 249.725 219.994 254.046 219.994 254.046C219.994 254.046 218.916 254.823 219.403 255.381C220.27 256.383 224.539 251.439 224.944 250.958C225.22 250.624 225.708 251.112 225.393 251.452C225.079 251.792 220.964 255.676 221.843 256.704C222.517 257.493 225.4 252.665 226.697 252.338C227.993 252.011 224.129 255.773 224.816 256.505C225.066 256.774 225.291 256.941 227.191 254.457C228.695 252.292 230.077 250.046 231.332 247.729C233.354 245.539 253.288 223.897 253.442 219.853C253.603 215.596 254.367 201.19 254.367 201.19L240.609 201.395Z" fill="#EB996E"/>
<path d="M216.835 271.836L216.649 265.961L227.653 265.551L228.013 274.14L227.332 274.211C224.302 274.494 211.924 275.431 209.85 274.892C207.565 274.288 216.835 271.836 216.835 271.836Z" fill="#92E3A9"/>
<g opacity="0.4">
<path d="M212.309 273.197C212.309 273.197 209.067 274.262 209.497 274.789C209.928 275.315 222.485 274.834 228.013 274.147L227.981 273.903L213.337 274.583C213.337 274.583 212.951 273.197 212.309 273.197Z" fill="white"/>
</g>
<path d="M228.154 273.884H227.968L227.428 273.935L225.432 274.102C223.743 274.224 221.413 274.365 218.832 274.468C216.251 274.57 213.914 274.603 212.226 274.609H210.223H209.677C209.613 274.619 209.548 274.619 209.484 274.609H209.677H210.223L212.219 274.577C213.914 274.545 216.251 274.493 218.826 274.391C221.4 274.288 223.737 274.166 225.425 274.063L227.422 273.941H227.968L228.154 273.884Z" fill="#263238"/>
<path d="M213.343 274.776C213.245 274.447 213.109 274.13 212.938 273.832C212.729 273.561 212.49 273.313 212.226 273.094C212.569 273.2 212.861 273.429 213.048 273.736C213.278 274.031 213.383 274.404 213.343 274.776Z" fill="#263238"/>
<path d="M216.527 272.978C216.527 272.978 216.335 272.818 216.168 272.567C216.047 272.429 215.959 272.264 215.911 272.086C215.943 272.086 216.104 272.246 216.277 272.49C216.45 272.734 216.559 272.959 216.527 272.978Z" fill="#263238"/>
<path d="M217.4 272.471C217.4 272.471 217.201 272.394 217.002 272.227C216.803 272.06 216.668 271.913 216.694 271.881C216.72 271.849 216.893 271.964 217.092 272.125C217.291 272.285 217.426 272.446 217.4 272.471Z" fill="#263238"/>
<path d="M217.927 271.412C217.746 271.485 217.551 271.518 217.355 271.508C217.339 271.577 217.298 271.637 217.24 271.678C217.182 271.718 217.111 271.736 217.041 271.728C216.97 271.719 216.906 271.686 216.859 271.633C216.812 271.58 216.786 271.511 216.786 271.441C216.786 271.37 216.812 271.302 216.859 271.249C216.906 271.196 216.97 271.162 217.041 271.154C217.111 271.146 217.182 271.163 217.24 271.204C217.298 271.244 217.339 271.305 217.355 271.373C217.546 271.344 217.742 271.357 217.927 271.412Z" fill="#263238"/>
<path d="M218.094 270.674C217.906 270.806 217.682 270.88 217.452 270.885C217.236 270.923 217.014 270.901 216.81 270.821C217.022 270.78 217.236 270.757 217.452 270.751C217.663 270.704 217.878 270.678 218.094 270.674Z" fill="#263238"/>
<path d="M216.116 272.035C215.883 272.076 215.644 272.076 215.41 272.035C215.154 272.012 214.901 271.967 214.653 271.9C214.502 271.861 214.356 271.808 214.216 271.739C214.129 271.692 214.063 271.614 214.03 271.521C214.017 271.47 214.02 271.416 214.037 271.366C214.054 271.316 214.085 271.271 214.126 271.239C214.39 271.093 214.697 271.044 214.992 271.102C215.288 271.159 215.554 271.319 215.744 271.553C215.86 271.687 215.945 271.845 215.994 272.015C216.009 272.079 216.009 272.145 215.994 272.208C215.913 271.993 215.796 271.793 215.648 271.617C215.475 271.433 215.252 271.303 215.006 271.245C214.867 271.204 214.721 271.19 214.576 271.206C214.432 271.221 214.292 271.265 214.165 271.335C214.056 271.425 214.107 271.553 214.235 271.624C214.363 271.688 214.496 271.74 214.633 271.778C214.874 271.852 215.121 271.906 215.372 271.938C215.847 272.022 216.116 272.009 216.116 272.035Z" fill="#263238"/>
<path d="M215.937 272.073C215.846 271.928 215.812 271.754 215.84 271.585C215.852 271.4 215.911 271.221 216.014 271.065C216.067 270.957 216.148 270.864 216.248 270.797C216.348 270.729 216.464 270.689 216.585 270.68C216.657 270.693 216.721 270.733 216.764 270.791C216.807 270.85 216.826 270.923 216.816 270.995C216.807 271.109 216.77 271.22 216.707 271.316C216.621 271.476 216.516 271.625 216.392 271.759C216.174 271.983 216.007 272.073 215.994 272.06C215.982 272.048 216.129 271.926 216.322 271.695C216.429 271.562 216.522 271.417 216.598 271.264C216.688 271.11 216.746 270.834 216.566 270.815C216.386 270.796 216.219 270.982 216.116 271.13C216.022 271.271 215.959 271.431 215.93 271.598C215.918 271.756 215.92 271.915 215.937 272.073Z" fill="#263238"/>
<path d="M227.814 270.879C227.814 270.879 227.499 270.879 227.005 270.937C226.36 271.04 225.756 271.318 225.259 271.739C224.768 272.168 224.406 272.723 224.212 273.344C224.058 273.826 224.058 274.141 224.032 274.141C224.021 274.066 224.021 273.99 224.032 273.916C224.044 273.714 224.077 273.514 224.129 273.319C224.301 272.665 224.668 272.079 225.18 271.638C225.692 271.196 226.326 270.921 226.998 270.847C227.199 270.825 227.401 270.825 227.602 270.847C227.674 270.845 227.746 270.856 227.814 270.879Z" fill="#263238"/>
<path d="M226.504 266.347C226.608 267.094 226.668 267.846 226.684 268.6C226.746 269.354 226.761 270.111 226.729 270.866C226.628 270.117 226.568 269.362 226.549 268.607C226.487 267.855 226.472 267.1 226.504 266.347Z" fill="#263238"/>
<path d="M222.594 273.184C222.073 273.325 221.536 273.399 220.996 273.402C220.456 273.449 219.912 273.427 219.378 273.338C219.378 273.299 220.103 273.338 220.989 273.267C221.875 273.197 222.588 273.145 222.594 273.184Z" fill="#263238"/>
<path d="M224.751 273.1C224.751 273.1 224.694 273.254 224.629 273.421C224.565 273.588 224.527 273.736 224.488 273.736C224.45 273.736 224.424 273.563 224.488 273.37C224.552 273.177 224.7 273.075 224.751 273.1Z" fill="#263238"/>
<path d="M225.522 272.054C225.522 272.054 225.483 272.195 225.374 272.317C225.265 272.439 225.156 272.516 225.124 272.491C225.092 272.465 225.169 272.349 225.278 272.227C225.387 272.105 225.496 272.028 225.522 272.054Z" fill="#263238"/>
<path d="M226.671 271.566C226.671 271.604 226.517 271.611 226.356 271.675C226.196 271.739 226.08 271.829 226.055 271.804C226.029 271.778 226.112 271.624 226.311 271.547C226.51 271.47 226.677 271.515 226.671 271.566Z" fill="#263238"/>
<path d="M227.486 271.303C227.486 271.335 227.441 271.393 227.351 271.431C227.262 271.47 227.178 271.476 227.159 271.431C227.14 271.386 227.21 271.335 227.3 271.296C227.39 271.258 227.473 271.264 227.486 271.303Z" fill="#263238"/>
<g opacity="0.3">
<path d="M227.788 270.584L216.791 270.821L216.758 269.492L227.852 269.884L227.788 270.584Z" fill="black"/>
</g>
<path d="M258.257 231.98L223.474 231.505C223.474 231.505 213.786 232.404 213.786 245.013L215.012 269.839H229.836L228.828 246.046C229.656 246.046 240.878 246.419 240.878 246.419L258.257 231.98Z" fill="#263238"/>
<path d="M215.019 269.839C214.989 269.698 214.974 269.554 214.974 269.409C214.974 269.094 214.929 268.684 214.903 268.176L214.64 263.644C214.415 259.792 213.998 254.534 213.69 248.679C213.587 245.758 213.362 242.959 213.69 240.41C213.768 239.789 213.895 239.175 214.068 238.574C214.25 238.009 214.488 237.465 214.781 236.949C215.308 236.027 215.99 235.202 216.797 234.51C217.462 233.944 218.195 233.463 218.98 233.078C219.576 232.81 220.195 232.595 220.829 232.436L221.522 232.269L222.042 232.186C222.184 232.157 222.328 232.141 222.472 232.141C222.338 232.194 222.198 232.23 222.055 232.25L221.548 232.366L220.861 232.558C220.245 232.753 219.645 232.991 219.063 233.271C218.303 233.663 217.594 234.146 216.951 234.709C216.182 235.398 215.531 236.209 215.025 237.11C214.76 237.614 214.545 238.143 214.383 238.689C214.22 239.277 214.1 239.875 214.024 240.48C213.696 242.971 213.927 245.771 214.024 248.692C214.312 254.534 214.71 259.817 214.877 263.657C214.967 265.583 215.012 267.123 215.031 268.196C215.031 268.709 215.031 269.114 215.031 269.435C215.042 269.57 215.038 269.705 215.019 269.839Z" fill="#455A64"/>
<path d="M281.408 271.842L275.54 272.234L274.776 261.256L283.347 260.614L283.443 261.256C283.828 264.273 285.202 276.664 284.727 278.699C284.188 281.023 281.408 271.842 281.408 271.842Z" fill="#92E3A9"/>
<g opacity="0.4">
<path d="M282.929 276.317C282.929 276.317 284.104 279.527 284.618 279.071C285.131 278.615 284.207 266.09 283.334 260.594H283.09L284.29 275.213C284.29 275.213 282.904 275.675 282.929 276.317Z" fill="white"/>
</g>
<path d="M283.051 260.459C283.072 260.52 283.085 260.582 283.09 260.646C283.09 260.806 283.135 260.986 283.16 261.185C283.225 261.724 283.302 262.392 283.392 263.175C283.578 264.857 283.802 267.181 283.989 269.756C284.175 272.33 284.303 274.66 284.367 276.355C284.367 277.139 284.412 277.813 284.432 278.352C284.432 278.557 284.432 278.737 284.432 278.898C284.439 278.962 284.439 279.026 284.432 279.09C284.427 279.026 284.427 278.962 284.432 278.898C284.432 278.737 284.432 278.557 284.399 278.358C284.399 277.813 284.335 277.145 284.29 276.355C284.2 274.667 284.066 272.336 283.879 269.762C283.693 267.188 283.475 264.864 283.314 263.182C283.244 262.398 283.18 261.731 283.128 261.191C283.128 260.986 283.096 260.813 283.077 260.646C283.058 260.479 283.051 260.459 283.051 260.459Z" fill="#263238"/>
<path d="M284.438 275.225C284.116 275.342 283.806 275.49 283.514 275.668C283.247 275.885 283.008 276.133 282.801 276.407C282.901 276.054 283.13 275.751 283.443 275.559C283.723 275.33 284.077 275.212 284.438 275.225Z" fill="#263238"/>
<path d="M282.557 272.105C282.557 272.137 282.403 272.304 282.165 272.484C281.928 272.664 281.71 272.786 281.684 272.754C281.658 272.722 281.844 272.555 282.082 272.375C282.22 272.254 282.382 272.162 282.557 272.105Z" fill="#263238"/>
<path d="M282.024 271.251C282.024 271.251 281.947 271.457 281.793 271.662C281.639 271.868 281.485 272.009 281.459 271.983C281.434 271.958 281.53 271.778 281.69 271.579C281.851 271.38 281.992 271.232 282.024 271.251Z" fill="#263238"/>
<path d="M280.946 270.77C280.984 270.77 281.035 271.02 281.061 271.335C281.105 271.525 281.105 271.723 281.061 271.913C281.023 271.913 280.971 271.662 280.946 271.348C280.92 271.033 280.907 270.77 280.946 270.77Z" fill="#263238"/>
<path d="M280.201 270.629C280.344 270.813 280.425 271.038 280.432 271.271C280.482 271.484 280.468 271.707 280.393 271.913C280.343 271.702 280.313 271.487 280.304 271.271C280.248 271.061 280.214 270.846 280.201 270.629Z" fill="#263238"/>
<path d="M281.626 272.548C281.687 272.779 281.704 273.018 281.677 273.255C281.663 273.512 281.624 273.768 281.562 274.019C281.531 274.171 281.483 274.319 281.421 274.462C281.377 274.548 281.305 274.617 281.215 274.654C281.163 274.669 281.108 274.67 281.056 274.655C281.003 274.64 280.956 274.611 280.92 274.571C280.765 274.311 280.706 274.006 280.754 273.707C280.803 273.409 280.954 273.137 281.183 272.94C281.314 272.82 281.47 272.731 281.639 272.677C281.697 272.65 281.761 272.639 281.825 272.645C281.611 272.73 281.415 272.854 281.247 273.011C281.07 273.185 280.949 273.409 280.901 273.653C280.863 273.793 280.854 273.939 280.875 274.083C280.896 274.226 280.946 274.364 281.023 274.487C281.112 274.596 281.241 274.545 281.305 274.41C281.365 274.28 281.412 274.145 281.446 274.006C281.511 273.761 281.556 273.512 281.581 273.261C281.626 272.85 281.607 272.555 281.626 272.548Z" fill="#263238"/>
<path d="M281.677 272.728C281.536 272.828 281.362 272.871 281.19 272.85C281.005 272.84 280.825 272.787 280.663 272.696C280.553 272.644 280.459 272.564 280.388 272.466C280.317 272.367 280.273 272.252 280.259 272.131C280.27 272.06 280.308 271.995 280.365 271.951C280.423 271.907 280.495 271.886 280.567 271.894C280.682 271.899 280.794 271.932 280.894 271.99C281.057 272.069 281.209 272.17 281.344 272.292C281.477 272.391 281.585 272.521 281.658 272.67C281.658 272.67 281.523 272.542 281.286 272.362C281.147 272.261 280.998 272.173 280.843 272.099C280.682 272.016 280.413 271.964 280.393 272.144C280.374 272.324 280.58 272.491 280.727 272.587C280.871 272.677 281.034 272.734 281.202 272.754C281.361 272.763 281.521 272.754 281.677 272.728Z" fill="#263238"/>
<path d="M280.066 260.902C280.066 260.902 280.066 261.217 280.156 261.711C280.278 262.35 280.573 262.943 281.01 263.425C281.457 263.9 282.025 264.244 282.653 264.42C283.141 264.549 283.456 264.542 283.456 264.568C283.381 264.58 283.305 264.58 283.231 264.568C283.03 264.565 282.83 264.539 282.634 264.491C281.975 264.34 281.377 263.993 280.918 263.496C280.46 262.998 280.163 262.374 280.066 261.705C280.042 261.504 280.042 261.302 280.066 261.101C280.056 261.035 280.056 260.968 280.066 260.902Z" fill="#263238"/>
<path d="M275.578 262.373C276.322 262.245 277.072 262.159 277.825 262.116C278.575 262.027 279.33 261.984 280.085 261.988C279.342 262.12 278.592 262.206 277.838 262.244C277.088 262.333 276.334 262.376 275.578 262.373Z" fill="#263238"/>
<path d="M282.551 266.038C282.711 266.555 282.804 267.09 282.827 267.63C282.901 268.167 282.901 268.712 282.827 269.248C282.788 269.248 282.782 268.529 282.705 267.643C282.628 266.757 282.512 266.051 282.551 266.038Z" fill="#263238"/>
<path d="M282.39 263.862C282.39 263.862 282.544 263.913 282.717 263.971C282.891 264.029 283.032 264.061 283.032 264.1C283.032 264.138 282.865 264.17 282.673 264.1C282.48 264.029 282.364 263.913 282.39 263.862Z" fill="#263238"/>
<path d="M281.318 263.149C281.318 263.149 281.466 263.188 281.588 263.291C281.71 263.393 281.793 263.502 281.767 263.535C281.742 263.567 281.626 263.496 281.498 263.393C281.369 263.291 281.299 263.182 281.318 263.149Z" fill="#263238"/>
<path d="M280.772 262.026C280.811 262.026 280.824 262.173 280.888 262.334C280.952 262.494 281.055 262.604 281.029 262.629C281.003 262.655 280.849 262.584 280.766 262.385C280.682 262.186 280.74 262.019 280.772 262.026Z" fill="#263238"/>
<path d="M280.496 261.217C280.496 261.217 280.592 261.256 280.631 261.345C280.669 261.435 280.682 261.519 280.631 261.538C280.58 261.557 280.535 261.493 280.49 261.403C280.445 261.313 280.464 261.23 280.496 261.217Z" fill="#263238"/>
<g opacity="0.3">
<path d="M279.771 260.934L280.393 271.919L279.071 272.003V260.902L279.771 260.934Z" fill="black"/>
</g>
<path d="M245.437 260.986C245.437 260.986 275.078 244.801 278.435 239.53C279.442 237.987 280.059 236.222 280.231 234.388C280.403 232.554 280.126 230.705 279.424 229.001L254.482 232.333L236.744 250.098C232.892 253.16 225.913 259.561 225.913 265.872C225.913 276.67 239.877 274.904 249.898 274.93C263.599 274.962 278.975 275.02 278.975 275.02L279.013 260.299L245.437 260.986Z" fill="#263238"/>
<path d="M238.394 264.068C239.644 263.678 240.865 263.199 242.047 262.636C243.267 262.158 244.449 261.589 245.584 260.935C244.333 261.325 243.113 261.806 241.931 262.373C240.712 262.849 239.529 263.416 238.394 264.068Z" fill="#455A64"/>
<path d="M240.75 260.459C241.595 260.627 242.456 260.702 243.318 260.684C244.186 260.757 245.06 260.738 245.925 260.626C245.079 260.46 244.218 260.382 243.357 260.395C242.488 260.317 241.614 260.339 240.75 260.459Z" fill="#455A64"/>
<path d="M252.531 234.831C252.448 234.942 252.356 235.045 252.255 235.139L251.407 235.974L248.255 239.01L237.771 248.936C235.723 250.862 233.733 252.678 231.993 254.393C230.442 255.886 229.072 257.556 227.91 259.368C227.138 260.595 226.57 261.939 226.228 263.348L226.08 263.99C226.08 264.183 226.035 264.344 226.01 264.491C226.001 264.629 225.976 264.765 225.933 264.896C225.917 264.759 225.917 264.621 225.933 264.485C225.933 264.337 225.933 264.17 225.971 263.978C226.01 263.785 226.042 263.554 226.087 263.297C226.385 261.855 226.93 260.476 227.698 259.22C228.843 257.37 230.207 255.665 231.762 254.142C233.489 252.402 235.473 250.598 237.54 248.659L248.094 238.824L251.304 235.871L252.197 235.075C252.302 234.985 252.413 234.903 252.531 234.831Z" fill="#455A64"/>
<path d="M243.632 202.673C243.006 203.011 242.316 203.213 241.607 203.267C240.898 203.321 240.185 203.226 239.515 202.987C238.845 202.748 238.232 202.37 237.717 201.88C237.202 201.389 236.796 200.795 236.526 200.137L235.396 197.383C235.396 197.383 231.544 198.744 229.618 195.232C228.526 193.261 226.979 189.897 225.836 187.323C225.364 186.252 225.175 185.078 225.288 183.913C225.4 182.749 225.81 181.632 226.478 180.672C229.618 176.711 232.109 177.372 237.097 178.181L237.842 178.303L245.873 196.118C246.399 197.292 246.46 198.621 246.044 199.837C245.628 201.054 244.766 202.067 243.632 202.673Z" fill="#FFBE9D"/>
<path d="M228.282 189.063C228.322 188.954 228.328 188.835 228.3 188.723C228.272 188.61 228.212 188.508 228.126 188.43C228.04 188.352 227.933 188.302 227.818 188.285C227.703 188.268 227.586 188.286 227.481 188.336C227.377 188.386 227.289 188.466 227.23 188.566C227.171 188.666 227.143 188.781 227.15 188.897C227.157 189.013 227.198 189.124 227.268 189.216C227.338 189.309 227.434 189.378 227.544 189.416C227.616 189.441 227.692 189.452 227.768 189.448C227.843 189.444 227.918 189.425 227.986 189.392C228.055 189.36 228.116 189.314 228.167 189.257C228.218 189.2 228.257 189.134 228.282 189.063Z" fill="#263238"/>
<path d="M226.703 188.472C226.793 188.504 226.992 188.048 227.48 187.785C227.968 187.522 228.456 187.58 228.475 187.49C228.494 187.4 228.372 187.368 228.154 187.336C227.866 187.293 227.571 187.349 227.319 187.496C227.061 187.641 226.858 187.866 226.741 188.138C226.626 188.324 226.664 188.459 226.703 188.472Z" fill="#263238"/>
<path d="M232.507 186.18C232.448 186.28 232.421 186.395 232.428 186.51C232.435 186.626 232.476 186.737 232.547 186.829C232.617 186.921 232.713 186.99 232.822 187.027C232.932 187.065 233.05 187.069 233.161 187.039C233.273 187.009 233.374 186.947 233.45 186.86C233.526 186.773 233.575 186.666 233.59 186.551C233.606 186.436 233.586 186.32 233.535 186.216C233.484 186.112 233.403 186.026 233.303 185.968C233.237 185.929 233.164 185.904 233.088 185.893C233.012 185.883 232.934 185.888 232.86 185.907C232.786 185.927 232.717 185.961 232.656 186.008C232.595 186.055 232.545 186.113 232.507 186.18Z" fill="#263238"/>
<path d="M232.019 186.065C232.109 186.097 232.308 185.641 232.796 185.378C233.283 185.114 233.771 185.172 233.791 185.082C233.81 184.992 233.688 184.96 233.47 184.928C233.181 184.885 232.887 184.942 232.635 185.089C232.377 185.233 232.174 185.459 232.057 185.731C231.967 185.917 231.98 186.052 232.019 186.065Z" fill="#263238"/>
<path d="M232.404 191.22C232.099 191.25 231.803 191.337 231.531 191.477C231.396 191.528 231.28 191.554 231.236 191.477C231.162 191.352 231.125 191.21 231.126 191.066C231.081 190.674 231.03 190.282 230.979 189.872C230.896 188.838 230.705 187.816 230.407 186.822C230.393 187.858 230.481 188.892 230.671 189.91C230.728 190.321 230.786 190.713 230.844 191.104C230.847 191.311 230.922 191.511 231.056 191.669C231.1 191.708 231.152 191.736 231.209 191.751C231.266 191.765 231.326 191.766 231.383 191.753C231.466 191.735 231.547 191.705 231.621 191.663C232.147 191.432 232.449 191.258 232.404 191.22Z" fill="#263238"/>
<path d="M235.364 197.338C237.011 196.49 238.368 195.168 239.26 193.544C239.26 193.544 239.543 196.67 235.851 198.256L235.364 197.338Z" fill="#EB996E"/>
<path d="M239.421 182.257C239.479 182.193 242.246 180.556 243.068 183.574C243.78 186.186 240.827 186.636 240.788 186.552C240.75 186.469 239.421 182.257 239.421 182.257Z" fill="#FFBE9D"/>
<path d="M241.321 185.018C241.321 185.018 241.373 185.018 241.463 185.018C241.582 185.022 241.699 184.981 241.79 184.902C241.913 184.74 241.99 184.549 242.015 184.347C242.04 184.145 242.011 183.94 241.931 183.753C241.859 183.536 241.739 183.338 241.578 183.175C241.526 183.106 241.458 183.051 241.38 183.014C241.301 182.977 241.215 182.96 241.129 182.964C241.075 182.97 241.025 182.995 240.986 183.033C240.948 183.071 240.924 183.122 240.917 183.175C240.917 183.259 240.917 183.304 240.917 183.31C240.917 183.317 240.846 183.31 240.833 183.182C240.822 183.115 240.836 183.047 240.872 182.989C240.922 182.911 241 182.856 241.09 182.835C241.2 182.817 241.313 182.827 241.418 182.865C241.522 182.903 241.615 182.968 241.687 183.053C241.872 183.232 242.011 183.452 242.092 183.695C242.181 183.909 242.206 184.145 242.164 184.373C242.122 184.601 242.014 184.812 241.854 184.979C241.795 185.024 241.727 185.055 241.655 185.069C241.583 185.083 241.508 185.081 241.437 185.063C241.347 185.082 241.315 185.031 241.321 185.018Z" fill="#EB996E"/>
<path d="M238.137 202.23C238.137 202.23 245.039 190.674 255.709 200.4C262.674 206.756 274.038 219.866 278.095 225.002C279.007 226.151 280.426 227.903 279.43 228.982C276.387 232.269 268.093 239.639 252.743 234.118L238.182 213.869C236.966 212.176 236.307 210.147 236.297 208.062C236.286 205.978 236.925 203.941 238.124 202.236L238.137 202.23Z" fill="#92E3A9"/>
<path d="M246.984 196.728L245.038 193.544L235.1 201.453L236.956 204.438L246.984 196.728Z" fill="#92E3A9"/>
<g opacity="0.3">
<path d="M246.56 197.139C246.56 197.139 238.734 203.906 238.625 203.79C238.516 203.674 235.498 201.505 235.498 201.505L238.253 203.052L246.56 197.139Z" fill="black"/>
</g>
<path d="M247.067 196.689C246.889 196.757 246.721 196.848 246.567 196.959C246.258 197.152 245.815 197.441 245.283 197.813C244.204 198.551 242.759 199.623 241.167 200.805C240.082 201.607 239.062 202.345 238.188 202.949H238.317C237.386 202.448 236.609 202.031 236.063 201.755C235.784 201.59 235.489 201.453 235.184 201.344C235.433 201.551 235.704 201.729 235.993 201.877C236.519 202.198 237.277 202.641 238.195 203.161L238.259 203.193L238.323 203.154C239.216 202.564 240.249 201.838 241.334 201.036L245.398 197.98L246.631 197.055C246.791 196.952 246.937 196.829 247.067 196.689Z" fill="#263238"/>
<path d="M204.637 227.069L202.75 226.305C201.642 226.001 200.567 225.588 199.54 225.072C199.026 224.828 198.559 224.496 198.16 224.09C197.64 223.607 197.191 223.054 196.824 222.447C196.785 222.309 196.7 222.188 196.584 222.104C196.468 222.02 196.327 221.977 196.184 221.982C196.041 221.987 195.903 222.04 195.794 222.132C195.684 222.225 195.608 222.351 195.579 222.492C195.47 223.076 196.221 224.719 197.807 226.068C199.392 227.416 196.112 227.352 194.911 227.352C193.711 227.352 189.981 227.544 189.685 227.916C189.255 228.456 189.762 229.014 190.969 228.982C192.176 228.95 195.791 229.111 195.759 229.746C195.726 230.382 189.602 230.311 189.602 230.311C189.602 230.311 188.318 230.086 188.234 230.818C188.132 232.147 194.654 231.73 195.296 231.672C195.726 231.634 195.72 232.314 195.251 232.346C194.783 232.378 189.14 232.141 189.018 233.489C188.928 234.523 194.391 233.2 195.534 233.894C196.677 234.587 191.29 234.478 191.245 235.466C191.245 235.839 191.245 236.108 194.372 235.73C197.498 235.351 205.986 232.879 205.986 232.879L204.56 226.966" fill="#FFBE9D"/>
<path d="M241.514 206.262C241.514 206.262 231.364 220.257 229.014 220.803C226.665 221.349 200.497 225.464 200.497 225.464L201.781 234.003C201.781 234.003 234.259 233.091 237.405 230.221C240.551 227.351 250.053 212.759 250.053 212.759L241.514 206.262Z" fill="#FFBE9D"/>
<path d="M234.368 229.977C234.368 229.977 234.439 230.093 234.638 230.215C234.932 230.376 235.267 230.445 235.601 230.414C235.853 230.393 236.097 230.314 236.314 230.184C236.531 230.053 236.716 229.875 236.853 229.663C237.03 229.403 237.132 229.099 237.147 228.785C237.162 228.471 237.089 228.159 236.936 227.884C236.777 227.585 236.512 227.355 236.192 227.242C235.888 227.145 235.559 227.17 235.274 227.313C235.155 227.376 235.051 227.462 234.967 227.567C234.883 227.671 234.821 227.792 234.786 227.921C234.75 228.051 234.742 228.186 234.76 228.318C234.779 228.451 234.825 228.579 234.895 228.693C235 228.837 235.149 228.942 235.319 228.993C235.49 229.044 235.672 229.038 235.839 228.976C236.063 228.879 236.121 228.738 236.108 228.732C236.095 228.725 236.006 228.815 235.8 228.867C235.664 228.9 235.521 228.891 235.39 228.84C235.259 228.79 235.147 228.7 235.068 228.584C235.021 228.495 234.993 228.397 234.984 228.297C234.975 228.196 234.986 228.095 235.017 227.999C235.047 227.903 235.096 227.814 235.161 227.737C235.226 227.66 235.306 227.597 235.396 227.55C235.617 227.448 235.87 227.434 236.102 227.512C236.351 227.601 236.559 227.78 236.686 228.013C236.797 228.226 236.856 228.462 236.857 228.702C236.858 228.942 236.802 229.179 236.694 229.393C236.585 229.607 236.427 229.792 236.233 229.933C236.038 230.074 235.813 230.166 235.575 230.202C235.16 230.243 234.741 230.165 234.368 229.977Z" fill="#EB996E"/>
<path d="M253.102 210.525L243.472 227.056L232.365 217.863C232.365 217.863 240.069 205.267 243.697 201.363L253.102 210.525Z" fill="#92E3A9"/>
<path d="M225.483 242.085C226.375 242.406 227.155 242.977 227.731 243.73C228.307 244.482 228.655 245.385 228.732 246.329C228.151 244.592 227.008 243.099 225.483 242.085Z" fill="#455A64"/>
<path d="M236.981 183.76C237.051 183.89 237.149 184.003 237.27 184.089C237.39 184.175 237.529 184.231 237.675 184.254C237.964 184.312 238.259 184.305 238.554 184.363C239.013 184.45 239.428 184.693 239.729 185.05C239.849 185.213 239.984 185.364 240.134 185.5C240.211 185.565 240.306 185.606 240.407 185.616C240.508 185.627 240.61 185.606 240.699 185.557C240.955 185.365 240.84 184.967 240.699 184.678C240.095 183.484 239.496 182.29 238.901 181.095L235.498 181.834L236.962 183.535" fill="#263238"/>
<path d="M225.868 179.696C226.26 179.227 226.844 178.842 227.306 179.246C227.734 179.694 228.012 180.264 228.102 180.877C228.198 181.486 228.402 182.074 228.706 182.611C228.926 182.931 229.229 183.187 229.582 183.349C229.936 183.511 230.326 183.575 230.713 183.533C231.1 183.491 231.468 183.344 231.778 183.11C232.088 182.875 232.329 182.56 232.474 182.2C232.897 182.928 233.44 183.579 234.079 184.126C234.403 184.392 234.788 184.574 235.2 184.653C235.611 184.733 236.036 184.708 236.436 184.581C236.629 184.508 236.805 184.396 236.954 184.253C237.103 184.11 237.222 183.939 237.304 183.749C237.385 183.559 237.427 183.355 237.428 183.148C237.429 182.942 237.389 182.737 237.309 182.546C237.745 182.909 238.289 183.116 238.856 183.137C239.137 183.145 239.414 183.071 239.654 182.924C239.893 182.777 240.084 182.563 240.204 182.309C240.255 182.178 240.278 182.039 240.273 181.899C240.267 181.76 240.234 181.623 240.174 181.496C240.114 181.37 240.028 181.258 239.923 181.165C239.818 181.073 239.695 181.004 239.562 180.961C239.875 181.167 240.244 181.273 240.619 181.265C240.994 181.257 241.357 181.135 241.662 180.916C241.956 180.683 242.158 180.353 242.232 179.985C242.306 179.617 242.247 179.235 242.066 178.906C241.863 178.599 241.546 178.384 241.185 178.309C240.824 178.235 240.448 178.306 240.14 178.508C240.582 178.289 240.957 177.954 241.225 177.539C241.351 177.327 241.389 177.075 241.333 176.836C241.277 176.596 241.13 176.388 240.923 176.255C240.39 176.011 239.819 176.505 239.235 176.614C238.285 176.788 237.508 175.934 236.744 175.33C236.031 174.826 235.221 174.476 234.365 174.305C233.509 174.134 232.626 174.144 231.775 174.335C230.069 174.735 228.496 175.571 227.21 176.762C226.35 177.513 225.522 178.604 225.868 179.689" fill="#263238"/>
<path d="M227.91 186.617C227.91 186.893 227.647 187.13 227.326 187.259C227.19 187.331 227.037 187.364 226.883 187.353C226.73 187.341 226.582 187.286 226.459 187.194C226.273 186.995 226.459 186.552 226.96 186.328C227.461 186.103 227.91 186.34 227.91 186.617Z" fill="#263238"/>
<path d="M232.969 184.177C232.911 184.453 232.571 184.626 232.231 184.787C231.89 184.947 231.524 185.076 231.28 184.928C231.22 184.869 231.18 184.792 231.169 184.708C231.157 184.624 231.174 184.539 231.216 184.466C231.335 184.199 231.551 183.988 231.82 183.875C232.084 183.747 232.388 183.726 232.667 183.817C232.879 183.901 232.982 184.042 232.969 184.177Z" fill="#263238"/>
<path d="M234.439 190.096C234.523 190.064 234.741 190.738 234.439 191.445C234.137 192.151 233.495 192.459 233.463 192.375C233.431 192.292 233.861 191.939 234.105 191.31C234.349 190.681 234.33 190.109 234.439 190.096Z" fill="#263238"/>
<path d="M241.848 179.837C241.848 179.837 241.803 179.876 241.7 179.927C241.545 179.992 241.38 180.026 241.212 180.03C240.894 180.04 240.579 179.96 240.304 179.798C240.029 179.637 239.805 179.401 239.659 179.118L239.832 179.157C239.252 179.687 238.499 179.986 237.713 179.998C237.233 180.016 236.755 179.929 236.311 179.744C235.868 179.559 235.47 179.28 235.145 178.925L235.428 178.81C235.428 179.028 235.373 179.243 235.267 179.434C235.162 179.625 235.009 179.786 234.824 179.901C234.459 180.148 234.017 180.255 233.579 180.203C232.892 180.057 232.276 179.681 231.833 179.137C231.39 178.656 231.036 178.155 230.626 177.763C230.264 177.375 229.794 177.105 229.277 176.987C228.823 176.913 228.358 176.97 227.936 177.153C227.308 177.434 226.746 177.843 226.286 178.354C226.117 178.549 225.932 178.729 225.734 178.893C225.86 178.662 226.013 178.447 226.189 178.251C226.631 177.688 227.195 177.234 227.839 176.922C228.304 176.707 228.821 176.629 229.329 176.698C229.904 176.813 230.431 177.102 230.837 177.526C231.28 177.943 231.646 178.444 232.07 178.9C232.465 179.382 233.01 179.718 233.617 179.856C234.323 179.959 235.139 179.458 235.107 178.81V178.341L235.415 178.701C235.712 179.024 236.075 179.28 236.479 179.453C236.883 179.625 237.319 179.71 237.758 179.702C238.479 179.703 239.178 179.448 239.729 178.983L239.845 178.88L239.902 179.015C240.026 179.273 240.217 179.492 240.456 179.65C240.695 179.807 240.972 179.896 241.257 179.908C241.456 179.901 241.653 179.878 241.848 179.837Z" fill="#455A64"/>
<path d="M254.713 207.969C254.681 207.969 254.713 207.584 254.566 206.917C254.395 205.967 254.039 205.059 253.519 204.246C252.762 203.037 251.653 202.09 250.341 201.53C248.727 200.863 246.927 200.8 245.27 201.35C244.426 201.645 243.639 202.079 242.939 202.634C242.28 203.158 241.677 203.75 241.142 204.4C240.243 205.523 239.428 206.709 238.702 207.95C238.06 208.997 237.534 209.876 237.142 210.422C236.956 210.711 236.795 210.923 236.686 211.064C236.577 211.205 236.519 211.282 236.506 211.276C236.659 210.953 236.835 210.642 237.033 210.345C237.405 209.703 237.899 208.849 238.497 207.822C239.203 206.551 240.008 205.339 240.904 204.195C242.002 202.752 243.477 201.641 245.167 200.985C246.899 200.405 248.783 200.48 250.463 201.196C251.591 201.699 252.571 202.481 253.311 203.469C254.052 204.456 254.528 205.617 254.694 206.84C254.731 207.105 254.746 207.374 254.739 207.642C254.752 207.752 254.743 207.863 254.713 207.969Z" fill="#263238"/>
<path d="M251.882 214.017C251.878 213.916 251.853 213.818 251.809 213.727C251.765 213.636 251.702 213.556 251.625 213.491C251.44 213.347 251.217 213.262 250.983 213.247C250.642 213.239 250.304 213.178 249.982 213.067C249.588 212.845 249.248 212.538 248.987 212.168C248.726 211.798 248.551 211.375 248.473 210.929C248.338 210.454 248.236 209.96 248.056 209.478C247.902 208.984 247.6 208.549 247.189 208.233C246.756 207.945 246.257 207.77 245.738 207.726C245.238 207.691 244.736 207.691 244.236 207.726C243.361 207.823 242.476 207.69 241.668 207.34C241.396 207.206 241.155 207.016 240.96 206.782C240.765 206.549 240.622 206.278 240.538 205.986C240.494 205.827 240.484 205.661 240.506 205.498C240.51 205.442 240.525 205.387 240.551 205.337C240.572 205.554 240.608 205.768 240.66 205.979C240.867 206.502 241.267 206.925 241.777 207.161C242.567 207.457 243.418 207.554 244.255 207.443C245.199 207.405 246.393 207.315 247.414 208.015C247.877 208.368 248.219 208.857 248.39 209.414C248.576 209.928 248.672 210.435 248.794 210.904C248.854 211.308 249 211.696 249.221 212.04C249.442 212.384 249.735 212.678 250.078 212.9C250.379 213.017 250.694 213.09 251.015 213.118C251.281 213.148 251.53 213.265 251.722 213.452C251.786 213.509 251.839 213.578 251.876 213.655C251.914 213.732 251.935 213.816 251.94 213.902C251.921 213.966 251.889 214.017 251.882 214.017Z" fill="#FAFAFA"/>
<path d="M248.049 219.506C248.011 219.506 247.998 219.294 247.773 218.993C247.44 218.596 246.991 218.313 246.489 218.184C245.847 217.972 245.026 217.998 244.12 217.702C243.632 217.551 243.205 217.247 242.901 216.836C242.599 216.405 242.432 215.905 242.156 215.5C241.591 214.679 240.577 214.402 239.716 214.216C238.904 214.084 238.127 213.789 237.431 213.35C236.967 213.017 236.643 212.526 236.519 211.969C236.467 211.766 236.485 211.551 236.571 211.359C236.603 211.359 236.571 211.578 236.648 211.937C236.798 212.43 237.113 212.856 237.54 213.144C238.224 213.534 238.975 213.793 239.755 213.908C240.232 214.002 240.699 214.144 241.148 214.332C241.651 214.538 242.085 214.883 242.4 215.327C242.708 215.789 242.869 216.284 243.138 216.656C243.398 217.019 243.767 217.289 244.191 217.426C245.019 217.715 245.86 217.722 246.534 217.972C247.079 218.129 247.553 218.469 247.876 218.935C247.958 219.066 248.012 219.212 248.037 219.365C248.056 219.455 248.062 219.506 248.049 219.506Z" fill="#FAFAFA"/>
<path d="M265.788 210.807C265.805 210.896 265.805 210.988 265.788 211.077C265.73 211.329 265.635 211.571 265.505 211.796C264.985 212.598 264.232 213.222 263.348 213.587C262.809 213.837 262.199 214.062 261.57 214.338C260.9 214.61 260.288 215.007 259.766 215.507C258.675 216.585 258.142 218.254 257.371 219.891C257.019 220.717 256.514 221.469 255.882 222.106C255.728 222.261 255.558 222.399 255.375 222.517C255.205 222.649 255.022 222.763 254.829 222.857C254.456 223.035 254.064 223.168 253.661 223.256C252.1 223.589 250.682 223.506 249.571 223.859C248.677 224.073 247.904 224.632 247.42 225.413C247.263 225.711 247.152 226.031 247.093 226.363C247.093 226.363 247.093 226.267 247.093 226.093C247.119 225.836 247.193 225.585 247.311 225.355C247.542 224.934 247.855 224.564 248.233 224.267C248.61 223.97 249.043 223.753 249.507 223.628C250.662 223.236 252.107 223.294 253.596 222.954C253.976 222.869 254.345 222.74 254.694 222.569C254.871 222.481 255.039 222.375 255.195 222.254C255.365 222.144 255.523 222.015 255.664 221.869C256.262 221.254 256.741 220.534 257.076 219.744C257.834 218.145 258.36 216.431 259.554 215.288C260.11 214.765 260.765 214.357 261.48 214.088C262.122 213.812 262.732 213.606 263.265 213.369C264.124 213.038 264.871 212.467 265.416 211.725C265.578 211.436 265.703 211.128 265.788 210.807Z" fill="#FAFAFA"/>
<path d="M272.24 218.749C272.192 219.113 272.051 219.458 271.829 219.75C271.233 220.553 270.42 221.17 269.486 221.529C268.343 222.055 266.854 222.293 265.441 223.057C264.704 223.444 264.095 224.038 263.689 224.764C263.283 225.578 262.923 226.414 262.61 227.268C261.894 228.947 260.653 230.348 259.073 231.261C257.788 232.004 256.325 232.379 254.842 232.346C253.853 232.329 252.875 232.129 251.959 231.756C251.711 231.655 251.468 231.539 251.234 231.409C251.073 231.313 250.996 231.261 251.003 231.249C251.009 231.236 251.356 231.403 252.004 231.634C252.919 231.951 253.88 232.111 254.848 232.109C256.28 232.107 257.685 231.724 258.919 230.998C260.427 230.106 261.612 228.757 262.302 227.146C262.618 226.269 262.986 225.411 263.406 224.578C263.849 223.806 264.504 223.178 265.294 222.768C266.783 221.984 268.272 221.779 269.396 221.291C270.303 220.962 271.106 220.399 271.726 219.66C271.928 219.374 272.1 219.069 272.24 218.749Z" fill="#FAFAFA"/>
<path d="M278.063 225.027C277.144 225.439 276.281 225.965 275.495 226.594C274.66 227.298 273.969 228.157 273.46 229.123C273.165 229.656 272.959 230.273 272.69 230.908C272.439 231.6 271.993 232.204 271.406 232.648C270.78 233.025 270.073 233.245 269.345 233.29C268.658 233.367 268.009 233.386 267.419 233.489C266.34 233.66 265.293 233.991 264.311 234.471C263.407 234.937 262.548 235.485 261.743 236.108C261.909 235.887 262.104 235.688 262.321 235.518C262.895 235.022 263.521 234.591 264.189 234.234C265.184 233.712 266.254 233.35 267.361 233.162C268.003 233.046 268.645 233.02 269.287 232.937C269.967 232.894 270.627 232.689 271.213 232.34C271.748 231.932 272.156 231.379 272.388 230.748C272.651 230.106 272.876 229.502 273.184 228.944C273.723 227.952 274.457 227.078 275.341 226.376C275.926 225.904 276.574 225.517 277.267 225.226C277.517 225.13 277.71 225.066 277.845 225.027C277.98 224.989 278.057 225.015 278.063 225.027Z" fill="#FAFAFA"/>
<path d="M252.306 213.144C252.854 212.943 253.353 212.628 253.77 212.22C254.207 211.763 254.555 211.23 254.797 210.647C255.087 209.92 255.317 209.171 255.484 208.406C255.662 207.623 255.918 206.859 256.248 206.127C256.535 205.524 256.946 204.988 257.455 204.554C257.794 204.253 258.198 204.033 258.636 203.912C258.793 203.861 258.961 203.848 259.124 203.874C258.566 204.042 258.049 204.326 257.609 204.708C257.153 205.146 256.785 205.667 256.524 206.243C256.218 206.961 255.979 207.707 255.811 208.47C255.634 209.252 255.389 210.017 255.079 210.756C254.809 211.365 254.42 211.915 253.937 212.374C253.608 212.684 253.216 212.918 252.787 213.061C252.638 213.132 252.471 213.161 252.306 213.144Z" fill="#FAFAFA"/>
<path d="M250.451 201.588C250.581 200.905 250.899 200.271 251.368 199.758C251.838 199.245 252.44 198.871 253.108 198.68C253.147 198.77 252.338 199.174 251.613 199.964C250.887 200.753 250.54 201.646 250.451 201.588Z" fill="#FAFAFA"/>
<path d="M245.944 195.014C245.655 195.547 245.317 196.052 244.936 196.523C244.561 197.065 244.158 197.588 243.729 198.089C243.455 198.394 243.124 198.641 242.753 198.815C242.344 198.974 241.907 199.046 241.469 199.026C241.061 198.997 240.651 198.997 240.243 199.026C239.88 199.079 239.53 199.197 239.209 199.373C238.659 199.68 238.225 200.161 237.976 200.741C237.764 201.292 237.674 201.884 237.713 202.474C237.631 202.327 237.587 202.161 237.585 201.992C237.534 201.538 237.594 201.078 237.758 200.651C237.994 200.004 238.448 199.459 239.042 199.11C239.392 198.9 239.781 198.763 240.185 198.705C240.611 198.662 241.041 198.651 241.469 198.673C241.848 198.708 242.231 198.652 242.584 198.51C242.938 198.368 243.253 198.145 243.504 197.858C243.998 197.338 244.39 196.786 244.75 196.356C245.104 195.872 245.504 195.422 245.944 195.014Z" fill="#FAFAFA"/>
<g opacity="0.2">
<path d="M254.47 210.043L249.597 229.785L245.334 223.846L254.47 210.043Z" fill="black"/>
</g>
<path d="M275.604 275.033C275.514 275.033 275.437 271.752 275.437 267.708C275.437 263.663 275.514 260.376 275.604 260.376C275.694 260.376 275.771 263.657 275.771 267.708C275.771 271.759 275.7 275.033 275.604 275.033Z" fill="#455A64"/>
<path d="M58.5441 238.651C59.5129 238.725 60.4567 238.995 61.3184 239.444C62.1802 239.893 62.942 240.512 63.5581 241.264C64.7809 242.774 65.6417 244.544 66.0747 246.438C67.012 250.065 66.3829 254.328 65.3172 257.917C61.4138 256.485 59.0384 252.287 57.9598 250.085C56.265 246.599 55.3148 239.273 58.5569 238.651" fill="#92E3A9"/>
<path d="M70.9026 262.353C70.3221 261.436 69.9944 260.382 69.9527 259.297C69.911 258.213 70.1567 257.136 70.665 256.177C71.1907 255.23 71.8995 254.396 72.7504 253.725C73.6013 253.053 74.5772 252.558 75.6213 252.268C76.0858 252.084 76.5846 252.003 77.0834 252.031C77.5822 252.058 78.069 252.194 78.5103 252.428C78.8826 252.714 79.1714 253.095 79.3464 253.531C79.5214 253.967 79.5763 254.442 79.5054 254.906C79.3516 255.834 78.9552 256.704 78.3562 257.429C76.4302 259.997 74.0997 262.116 70.9026 262.353Z" fill="#92E3A9"/>
<path d="M71.2621 274.442C71.1832 274.195 71.1252 273.941 71.0888 273.685C70.9925 273.152 70.8641 272.458 70.7036 271.624C70.2131 269.349 70.0896 267.01 70.3376 264.697C70.6228 262.36 71.5295 260.143 72.9634 258.277C73.4012 257.722 73.9033 257.222 74.4593 256.787C74.6077 256.667 74.7643 256.558 74.9279 256.46C74.9819 256.419 75.04 256.385 75.1013 256.357C74.3742 256.97 73.7077 257.651 73.1111 258.392C71.7565 260.253 70.8951 262.426 70.6073 264.709C70.3633 266.997 70.4606 269.307 70.8962 271.566C71.031 272.439 71.1337 273.152 71.1979 273.646C71.2442 273.909 71.2657 274.175 71.2621 274.442Z" fill="#263238"/>
<path d="M59.7638 244.166C59.8242 244.259 59.8757 244.358 59.9179 244.461L60.3095 245.34C60.6498 246.098 61.1313 247.209 61.7091 248.582C62.8647 251.33 64.4055 255.15 66.0169 259.407C67.6283 263.663 68.9958 267.554 69.9459 270.385C70.421 271.797 70.7998 272.953 71.0437 273.736C71.1593 274.115 71.2556 274.417 71.3262 274.654C71.3643 274.76 71.3922 274.87 71.4097 274.982C71.356 274.883 71.3109 274.78 71.2749 274.673L70.9474 273.775C70.6585 272.953 70.2541 271.849 69.7662 270.443C68.7646 267.637 67.3715 263.759 65.7601 259.529C64.1487 255.298 62.64 251.446 61.5293 248.679C60.9836 247.324 60.5406 246.207 60.2453 245.405L59.8986 244.512C59.8366 244.404 59.7911 244.287 59.7638 244.166Z" fill="#263238"/>
<path d="M66.6461 266.43C65.4903 264.455 63.8805 262.785 61.95 261.557C60.0196 260.328 57.8242 259.578 55.5459 259.368C54.3839 259.278 52.9779 259.458 52.4707 260.491C51.9635 261.525 52.6248 262.771 53.4016 263.631C55.0652 265.399 57.2146 266.635 59.5792 267.185C61.9439 267.734 64.4183 267.572 66.691 266.719" fill="#92E3A9"/>
<path d="M57.2793 262.482C57.5218 262.477 57.7642 262.49 58.0048 262.52C58.2872 262.534 58.5683 262.569 58.8458 262.623C59.1732 262.687 59.552 262.726 59.9565 262.841C60.3912 262.943 60.8198 263.07 61.2405 263.22C61.7395 263.38 62.2284 263.571 62.7042 263.791C64.9125 264.781 66.8437 266.297 68.3281 268.208C68.6474 268.621 68.9452 269.049 69.2205 269.492C69.4544 269.881 69.6686 270.282 69.8625 270.693C70.0615 271.065 70.1835 271.425 70.3119 271.726C70.4246 271.989 70.519 272.259 70.5944 272.535C70.6797 272.761 70.7399 272.996 70.7742 273.235C70.7164 273.235 70.4467 272.253 69.6892 270.783C69.4843 270.381 69.2571 269.991 69.0087 269.614C68.7331 269.17 68.433 268.741 68.1099 268.33C67.3669 267.409 66.5251 266.571 65.5996 265.833C64.6607 265.114 63.6494 264.494 62.5822 263.984C62.1144 263.762 61.6343 263.567 61.1442 263.4C60.7233 263.243 60.2948 263.108 59.8602 262.995C58.3065 262.61 57.2729 262.578 57.2793 262.482Z" fill="#263238"/>
</svg>
